<svg xmlns="http://www.w3.org/2000/svg" width="92" height="75" viewBox="0 0 92 75"><defs><style>.a{fill:none;}.b{fill:#7ad1e5;stroke:#7ad1e5;}</style></defs><g transform="translate(0.464 -0.041)"><g transform="translate(0 0)"><rect class="a" width="92" height="75" transform="translate(-0.464 0.041)"/></g><g transform="translate(6.277 11.476)"><path class="b" d="M10.719,40.38H53.1L38.512,54.964a2.719,2.719,0,1,0,3.845,3.845L61.583,39.583h0a2.744,2.744,0,0,0,.339-.414c.046-.069.077-.143.117-.214a2.72,2.72,0,0,0,.133-.254,2.418,2.418,0,0,0,.088-.282c.022-.075.052-.148.067-.225a2.717,2.717,0,0,0,.054-.534h0s0,0,0-.006a2.74,2.74,0,0,0-.053-.526c-.016-.082-.047-.157-.071-.237a2.525,2.525,0,0,0-.084-.27,2.816,2.816,0,0,0-.141-.269c-.037-.067-.066-.135-.108-.2a2.679,2.679,0,0,0-.341-.417L42.357,16.513a2.719,2.719,0,1,0-3.845,3.845L53.1,34.942H10.719a2.719,2.719,0,0,0,0,5.438Z" transform="translate(-8 -15.716)"/></g></g></svg>